<?xml version="1.0" standalone="no"?><!DOCTYPE svg PUBLIC "-//W3C//DTD SVG 1.1//EN" "http://www.w3.org/Graphics/SVG/1.1/DTD/svg11.dtd"><svg t="1668313659762" class="icon" viewBox="0 0 1024 1024" version="1.1" xmlns="http://www.w3.org/2000/svg" p-id="2943" xmlns:xlink="http://www.w3.org/1999/xlink" width="200" height="200"><path d="M710.698667 270.634667l-211.2 211.2a42.666667 42.666667 0 0 0 0 60.330666l211.2 211.2a42.666667 42.666667 0 0 0 60.330666-60.330666L589.994667 512l181.034666-181.034667a42.666667 42.666667 0 1 0-60.330666-60.330666z m-256 0l-211.2 211.2a42.666667 42.666667 0 0 0 0 60.330666l211.2 211.2a42.666667 42.666667 0 0 0 60.330666-60.330666L333.994667 512l181.034666-181.034667a42.666667 42.666667 0 0 0-60.330666-60.330666z" fill="#197afa" p-id="2944"></path></svg>